PathFileType	4	(X/Y/Z)	PS_ngait_og_ss9.trc	
DataRate	CameraRate	NumFrames	NumMarkers	Units	OrigDataRate	OrigDataStartFrame	OrigNumFrames	
120.00	120.00	4	39	mm	120.00	521	130	
Frame#	Time	Sternum			Neck			RShoulder			LShoulder			Xiphoid			Thoracic			RAsis			LAsis			RPsis			LPsis			LThighSuperior			LThighInferior			LThighLateral			LShankSuperior			LShankInferior			LShankLateral			RThighSuperior			RThighInferior			RThighLateral			RShankSuperior			RShankInferior			RShankLateral			RHeel			RToe			RMidfootMedial			RMidfootLateral			RHindfoot			RMidfootSuperior			RToeMedial			RToeLateral			LHeel			LToe			LMidfootMedial			LMidfootLateral			LHindfoot			LMidfootSuperior			LToeMedial			LToeLateral			Sacral			
		X1	Y1	Z1	X2	Y2	Z2	X3	Y3	Z3	X4	Y4	Z4	X5	Y5	Z5	X6	Y6	Z6	X7	Y7	Z7	X8	Y8	Z8	X9	Y9	Z9	X10	Y10	Z10	X11	Y11	Z11	X12	Y12	Z12	X13	Y13	Z13	X14	Y14	Z14	X15	Y15	Z15	X16	Y16	Z16	X17	Y17	Z17	X18	Y18	Z18	X19	Y19	Z19	X20	Y20	Z20	X21	Y21	Z21	X22	Y22	Z22	X23	Y23	Z23	X24	Y24	Z24	X25	Y25	Z25	X26	Y26	Z26	X27	Y27	Z27	X28	Y28	Z28	X29	Y29	Z29	X30	Y30	Z30	X31	Y31	Z31	X32	Y32	Z32	X33	Y33	Z33	X34	Y34	Z34	X35	Y35	Z35	X36	Y36	Z36	X37	Y37	Z37	X38	Y38	Z38	X39	Y39	Z39	

17	0.133	201.29041	1437.06177	154.02686	38.69594	1536.30334	141.32158	72.94146	1529.30640	306.09738	79.50591	1517.74402	5.39042	233.89415	1278.60266	170.49635	-43.59212	1317.80737	150.79498	132.40596	1015.70465	311.91354	172.60521	1010.64948	39.21356	-44.12864	1036.40686	206.41025	-34.82852	1028.92944	103.26606	133.03609	838.08301	-19.69332	207.75192	618.91010	14.64253	256.18195	735.65265	61.36460	243.39095	383.92673	12.79322	238.52902	183.10347	48.15751	279.27859	282.83954	80.70574	64.17381	816.08148	355.42905	58.95583	576.48486	346.43991	157.60049	725.14532	301.77225	-26.13486	452.69443	352.67572	-189.87735	262.96396	307.18619	-62.96456	321.78049	275.77356	-324.89203	240.88838	253.73792	-115.27993	17.35277	245.54759	-199.82800	64.58760	197.93846	-210.73346	52.25525	315.75497	-242.82484	90.27372	307.76108	-197.05562	131.04793	255.00027	-165.25620	41.99984	198.84749	-167.54967	30.49762	301.66263	161.48865	63.66675	105.24514	469.83694	64.98394	61.37979	376.69781	37.97604	123.99105	366.30609	33.64425	8.61267	312.61716	30.48724	22.37719	347.29993	98.98624	75.08516	418.09341	40.40257	115.82485	409.39603	45.06959	12.27768	-39.47858	1032.66821	154.83815 
18	0.142	209.63853	1438.56653	152.50034	47.03554	1537.55273	139.64197	81.01554	1531.05981	304.16986	88.32225	1519.02100	3.73762	242.47498	1280.16211	169.40402	-34.86865	1318.99243	149.55881	141.43877	1016.13995	310.72430	181.30667	1012.70691	37.82970	-35.16852	1037.93591	205.56488	-26.12374	1030.22681	102.10067	140.55746	838.47925	-20.37939	213.10818	618.66498	13.24293	263.42810	734.91077	59.02644	246.47415	383.59964	11.48613	238.88998	183.10928	48.18265	281.33112	282.25052	80.13531	77.15746	816.50323	355.08646	76.84525	576.72162	347.44080	171.89642	727.14050	301.70477	-7.81171	454.96509	354.37753	-175.11520	269.35553	308.04703	-46.61172	325.13187	276.91605	-307.32458	254.27461	254.28073	-112.79213	15.21864	247.13463	-192.67587	70.87842	198.69501	-204.64362	58.21185	316.31213	-234.69658	98.80180	308.05142	-183.64149	136.02423	256.59933	-159.77466	44.71852	200.14099	-164.15160	32.87694	302.84998	161.52414	63.61612	105.21023	470.04749	64.61077	61.45347	376.71609	37.85478	124.05608	366.35226	33.59735	8.63840	312.61282	30.45427	22.33076	347.35214	98.77499	75.17551	418.19766	40.17330	115.86218	409.56824	44.90987	12.31249	-30.64613	1034.08142	153.83278 
19	0.150	218.05269	1439.83240	151.27457	55.04081	1538.66040	138.20174	88.93362	1532.69141	302.47079	96.82223	1520.26245	2.16779	251.02769	1281.67297	168.25504	-26.29636	1319.92566	148.65512	150.25214	1016.51221	309.57690	190.15399	1014.55035	36.48488	-26.27414	1039.36511	204.51144	-17.31440	1031.36304	100.80917	147.79463	838.83740	-20.95649	217.59305	618.55267	12.75896	270.10172	734.43652	57.25474	248.94568	383.59000	11.34566	239.27089	183.25224	48.00496	283.24866	281.92502	79.67471	90.09656	816.96252	354.72238	94.46581	577.37909	348.24332	185.90814	729.09760	301.74631	10.50300	457.54739	355.82590	-159.83658	275.38287	308.75757	-30.21234	328.36230	277.59375	-289.92996	266.34180	254.37157	-112.02398	10.10996	246.24556	-184.45145	77.02957	199.48155	-196.75430	64.76398	315.74683	-225.59798	107.32047	308.34680	-165.69318	139.25587	258.25195	-155.13303	46.39214	200.29758	-159.82941	33.75354	302.89740	161.51776	63.57150	105.16116	470.14032	64.37816	61.43610	376.69159	37.69722	124.01794	366.36392	33.58075	8.56445	312.60986	30.30970	22.25414	347.40262	98.62360	75.27536	418.23303	39.97021	115.80325	409.64322	44.83027	12.25598	-21.79427	1035.36401	152.66031 
20	0.158	226.37024	1441.23975	150.03577	62.90298	1539.65393	136.91129	96.80764	1534.19373	300.92786	105.15894	1521.40283	0.65910	259.49551	1283.24219	167.18085	-17.79323	1321.07605	147.65509	159.39046	1016.85760	308.22592	198.94914	1016.41089	35.03053	-17.24555	1040.67688	203.56659	-8.49940	1032.49988	99.58514	154.68723	839.45270	-21.54183	222.01270	618.76831	12.28255	276.48615	734.01306	55.75774	251.14027	383.72827	11.00512	240.04471	183.52139	47.78069	284.95987	281.59756	79.32994	101.86454	818.05164	355.48981	111.60285	578.49695	349.03915	199.57533	731.31177	301.77954	28.42246	460.67856	357.17862	-144.28391	281.15579	309.27576	-13.91023	332.02390	278.46176	-273.17505	275.33972	253.92010	-107.70948	8.21018	246.76413	-174.36974	81.70055	200.42104	-186.94598	70.23814	315.43735	-214.88321	114.44096	308.95850	-149.65424	141.56372	259.44000	-147.65419	48.33199	201.14983	-152.95299	35.80203	303.73364	161.47487	63.56475	105.20007	470.17429	64.17283	61.45719	376.76492	37.65524	124.11810	366.28513	33.57880	8.44003	312.61810	30.26647	22.22691	347.45801	98.51867	75.25132	418.28018	39.84731	115.87386	409.58844	44.74932	12.33708	-12.87247	1036.58838	151.57587 
